<svg width="800" height="600" xmlns="http://www.w3.org/2000/svg">
 <style type="text/css">.st0{fill:#AF3110;}</style>

 <g>
  <title>background</title>
  <rect fill="none" id="canvas_background" height="402" width="582" y="-1" x="-1"/>
 </g>
 <g>
  <title>Layer 1</title>
  <g stroke="null" id="svg_59">
   <g stroke="null" id="svg_60">
    <path stroke="null" id="svg_61" d="m138.971115,271.576207c-7.639518,11.186437 -14.733356,22.100034 -23.464234,32.740791c-9.003718,12.004957 -20.190155,31.376592 -36.01487,35.196351c-3.546919,0.54568 -20.735834,-4.092599 -20.190155,-6.820998l0.81852,0c-3.546919,-1.909879 0,2.182719 -5.456799,-1.909879c-4.092599,-2.728399 -6.820998,-6.820998 -9.549397,-10.913597c-4.911119,-6.820998 -11.186437,-12.550637 -13.096316,-20.735834c-0.54568,-2.182719 -1.3642,-18.553115 2.182719,-18.553115c0.81852,0 0,2.182719 0.54568,2.182719l1.3642,-8.185198c-0.54568,0.81852 -0.54568,1.3642 -1.3642,1.909879c-1.909879,-0.54568 6.820998,-32.467951 7.639518,-35.196351c3.546919,-9.549397 5.456799,-20.190155 14.460516,-25.646953c6.820998,-4.365439 15.279036,-3.546919 23.737074,0c3.546919,1.3642 13.914836,5.729638 13.914836,10.367917c0,2.728399 -2.182719,3.274079 -3.546919,4.365439c0.54568,-0.54568 1.3642,-0.54568 1.909879,-0.54568c1.3642,0.81852 -5.456799,10.367917 -6.275318,9.822237c-0.81852,0 0.54568,-2.182719 0.81852,-3.546919c-8.458038,13.914836 -15.824716,29.739552 -21.008674,45.291428c2.182719,-5.729638 13.369156,-31.103752 14.733356,-30.558072s-29.739552,54.295145 -14.460516,61.934663c7.093838,3.546919 19.371635,-7.639518 24.282753,-11.732117c8.458038,-6.820998 20.190155,-15.279036 26.465473,-22.918554c-0.81852,0.81852 -1.909879,0.81852 -3.274079,0.81852c-1.909879,-2.182719 20.735834,-31.922271 24.828433,-34.650671c3.274079,-2.182719 9.549397,-4.092599 10.367917,1.909879c2.182719,9.549397 -5.729638,19.644475 -10.367917,25.374113z" class="st0"/>
    <path stroke="null" id="svg_62" d="m62.575935,297.22316l-0.81852,3.546919l0.81852,-2.728399l0,-0.54568c0.54568,-0.81852 0.54568,-0.81852 0,-0.27284z" class="st0"/>
    <path stroke="null" id="svg_63" d="m171.439066,254.114452c-1.3642,2.182719 -3.546919,4.365439 -4.911119,5.729638c-6.820998,7.093838 -10.367917,14.460516 -13.914836,22.372874c3.546919,-4.911119 7.639518,-9.549397 10.367917,-14.460516l8.458038,-13.641996z" class="st0"/>
    <path stroke="null" id="svg_64" d="m167.892147,270.757687c-3.546919,4.911119 -6.820998,9.822237 -9.549397,14.733356l4.092599,-5.729638l5.456799,-9.003718z" class="st0"/>
    <path stroke="null" id="svg_65" d="m346.329459,250.021853c-1.909879,-13.096316 -14.733356,0 -18.825955,3.546919c-7.639518,5.729638 -15.824716,10.913597 -23.464234,16.643236c-10.367917,7.093838 -20.190155,15.279036 -30.012392,23.464234c-4.092599,3.274079 -28.648192,26.192633 -31.103752,24.828433c7.093838,-22.372874 19.917315,-45.018588 31.922271,-66.027262c11.186437,-18.825955 -11.732117,-35.196351 -30.012392,-27.011153c-5.456799,2.182719 -11.186437,12.004957 -14.733356,17.188915c-8.458038,12.004957 -16.643236,25.101273 -25.101273,37.37907l-12.004957,18.553115c-1.3642,1.909879 -9.822237,14.460516 -8.458038,14.460516c0.54568,0 0.81852,-0.54568 1.3642,-0.81852c-9.003718,12.004957 -22.100034,27.556833 -33.832151,36.01487c-16.097556,12.550637 -6.820998,-25.101273 -4.365439,-31.376592c6.820998,-20.190155 18.007435,-39.561789 30.012392,-57.023545c1.909879,-2.728399 26.465473,-34.104991 34.650671,-41.744509c-8.185198,6.820998 -32.467951,36.83339 -36.28771,41.744509c14.460516,-20.735834 37.37907,-53.476626 64.390223,-58.114904l-5.729638,2.182719c5.456799,-0.81852 17.461755,-0.54568 17.461755,-0.54568l-1.3642,-1.3642c2.182719,1.3642 3.546919,3.274079 6.275318,3.274079c11.186437,-0.54568 8.458038,-18.553115 3.546919,-23.737074c-6.820998,-9.003718 -22.918554,-12.550637 -33.832151,-9.822237c-3.274079,0.81852 -4.365439,2.728399 -8.185198,3.274079c-4.092599,0.81852 -7.093838,0 -12.004957,2.728399c-9.003718,4.365439 -16.643236,10.913597 -23.737074,18.007435c-4.365439,4.092599 -47.746987,50.475386 -44.472908,52.112426c0.81852,0 1.909879,-0.81852 2.182719,-1.3642l-7.639518,11.186437c-0.54568,-0.54568 1.909879,-3.546919 1.3642,-3.546919c-1.909879,-0.81852 -10.913597,13.914836 -11.186437,15.279036c-4.365439,7.093838 -8.185198,15.279036 -9.549397,23.737074c-1.909879,9.549397 -2.182719,19.917315 -2.182719,29.193872c0,6.275318 0.54568,12.550637 2.182719,18.553115c0.54568,0.81852 5.729638,11.186437 4.911119,6.820998l1.3642,3.274079c-0.54568,0 -0.81852,-0.54568 -1.3642,-0.81852c-1.909879,3.274079 15.279036,18.553115 18.553115,19.917315c6.820998,3.274079 13.096316,1.3642 19.917315,-2.728399c14.733356,-9.003718 25.101273,-26.192633 35.46919,-40.380309c11.186437,-15.279036 23.737074,-31.103752 33.286471,-48.019827l-9.822237,35.196351c-4.092599,13.096316 -6.275318,32.467951 -14.460516,42.835869c-8.458038,10.367917 -21.008674,19.371635 -30.558072,28.375352c-9.822237,9.003718 -19.917315,18.007435 -28.648192,28.375352c-13.096316,14.733356 -25.101273,31.103752 -36.28771,47.201307c-13.096316,18.825955 -22.100034,39.01611 -13.096316,61.116144c8.185198,19.371635 26.465473,37.37907 49.111187,31.922271c19.371635,-4.911119 26.465473,-21.008674 35.196351,-36.28771c27.011153,-46.655627 40.380309,-100.677933 55.659345,-152.517519c2.182719,-7.639518 3.546919,-15.279036 9.003718,-21.008674c5.456799,-5.456799 12.004957,-10.367917 18.553115,-15.279036c12.550637,-11.186437 25.646953,-21.554354 39.01611,-32.467951l36.28771,-27.829673c4.638279,-6.548158 12.550637,-10.095077 10.640757,-18.553115zm-160.975557,184.439791c-2.728399,9.822237 -5.729638,19.917315 -9.822237,29.193872c-4.092599,7.639518 -9.549397,14.460516 -13.369156,21.554354c8.185198,-17.461755 16.643236,-34.104991 23.464234,-52.112426l0,1.3642l-0.27284,0zm1.909879,-31.649432c0,-0.54568 -2.182719,5.729638 -1.909879,4.911119c-9.549397,27.556833 -18.553115,54.840825 -31.103752,81.033458c-6.275318,13.096316 -36.01487,67.118622 -46.655627,27.556833c-7.093838,-25.101273 17.188915,-54.022306 31.103752,-72.302581c17.188915,-22.100034 34.650671,-41.744509 54.840825,-60.570464c-1.909879,6.275318 -4.092599,13.096316 -6.275318,19.371635z" class="st0"/>
    <path stroke="null" id="svg_66" d="m478.929664,284.126843c-9.822237,12.550637 -18.825955,26.192633 -29.739552,37.65191c-8.185198,8.458038 -21.554354,22.918554 -34.104991,18.825955c-2.728399,-0.81852 -19.371635,-9.822237 -18.825955,-12.004957l1.3642,0.81852l-2.728399,-2.728399c2.182719,3.546919 -2.728399,-0.81852 -3.274079,-0.81852c-2.182719,-2.182719 -4.092599,-5.729638 -5.456799,-8.458038c-2.182719,-4.911119 -2.728399,-9.822237 -2.728399,-14.733356c0,-4.911119 0.81852,-9.822237 1.3642,-14.733356c0.81852,-10.367917 1.3642,-19.371635 4.365439,-29.193872c0.81852,-2.182719 10.367917,-27.556833 13.369156,-26.465473c0.81852,0 -1.3642,3.274079 -0.81852,3.546919l6.275318,-12.550637c-0.81852,0.81852 -1.3642,1.909879 -2.182719,2.182719c-0.54568,-0.54568 5.456799,-10.913597 6.820998,-13.096316c-9.003718,10.367917 -16.097556,21.008674 -24.282753,31.922271c-5.729638,7.639518 -13.096316,12.550637 -17.188915,19.917315c-9.549397,16.097556 -21.008674,31.103752 -28.648192,47.746987l-1.909879,-3.546919c-8.185198,9.822237 -20.190155,-1.909879 -24.828433,-9.549397c-4.092599,-7.093838 -2.728399,-12.550637 -1.909879,-20.735834c0.81852,-7.093838 0.54568,-14.460516 2.728399,-22.100034c2.728399,-9.549397 6.275318,-18.553115 9.822237,-27.829673c3.274079,-9.549397 6.275318,-18.825955 9.822237,-28.375352c2.182719,-5.729638 6.820998,-13.096316 8.185198,-19.371635c1.3642,-4.911119 0,-8.185198 5.729638,-11.732117c5.456799,-3.274079 11.186437,-2.728399 17.188915,-1.909879c7.093838,1.3642 20.190155,9.003718 12.550637,20.190155c-3.274079,4.092599 -8.458038,8.458038 -12.004957,13.096316c-4.092599,4.911119 -3.546919,7.093838 -5.456799,13.096316c-0.81852,3.546919 -4.365439,6.820998 -6.275318,10.367917c-2.728399,4.911119 -4.365439,11.186437 -6.275318,17.188915c-0.81852,3.546919 -0.54568,6.275318 -0.81852,9.822237c-0.81852,9.549397 -4.092599,18.825955 -4.911119,28.375352c0.54568,-1.909879 3.546919,-4.911119 4.092599,-4.365439s-4.365439,8.185198 -4.092599,8.185198l26.465473,-38.74327c-5.729638,7.639518 -10.367917,13.096316 -10.367917,13.096316c-1.3642,-0.81852 52.112426,-69.301341 58.387744,-75.03098c13.096316,-12.004957 29.739552,-11.732117 36.01487,9.549397c7.093838,22.372874 -16.097556,37.37907 -27.011153,53.476626c-5.729638,9.003718 -10.913597,19.917315 -15.279036,29.193872c-3.274079,5.729638 -9.822237,18.825955 -10.913597,28.648192c0.81852,-6.820998 5.729638,-14.733356 7.639518,-19.371635c3.546919,-9.549397 8.458038,-17.188915 15.824716,-23.737074c-3.274079,5.729638 -6.820998,11.186437 -9.549397,16.643236l2.182719,-2.728399c0.81852,0 -4.092599,15.279036 -4.365439,16.097556c-1.909879,5.456799 -3.546919,11.186437 -4.092599,17.188915c-0.54568,0.54568 0,7.639518 0,7.639518l0.54568,0.54568c0,-0.54568 3.274079,-0.81852 4.092599,-1.3642c6.820998,-2.182719 13.369156,-8.458038 18.825955,-13.096316c10.913597,-8.458038 21.008674,-18.007435 31.376592,-27.011153c7.639518,-7.093838 17.461755,-14.460516 23.737074,-22.100034c2.728399,-4.092599 9.003718,-11.186437 11.186437,-0.54568c2.455559,10.640757 -14.460516,25.919793 -19.917315,33.013631z" class="st0"/>
    <path stroke="null" id="svg_67" d="m639.086701,246.747773c0,0.54568 0,0.54568 -0.54568,0l0,-0.54568c-7.093838,-12.004957 -16.643236,4.365439 -20.735834,10.367917c-7.639518,10.367917 -14.733356,20.190155 -22.918554,29.739552c-6.820998,8.185198 -13.914836,16.097556 -19.371635,24.828433c0,0.81852 -0.81852,3.274079 -0.81852,3.274079c-1.909879,2.728399 -4.365439,4.911119 -6.820998,7.639518c-4.092599,4.092599 -8.185198,8.458038 -12.550637,12.550637c-6.820998,6.275318 -44.472908,41.744509 -49.384027,18.825955c-2.728399,-11.186437 0.81852,-25.101273 3.274079,-36.01487c1.3642,-5.729638 2.728399,-11.186437 3.546919,-17.188915c0.81852,-4.365439 -0.54568,-9.003718 1.909879,-13.369156c1.3642,-2.728399 1.909879,-2.182719 4.911119,-3.274079l7.639518,-2.728399c4.911119,-1.909879 9.822237,-3.546919 14.460516,-6.275318c6.820998,-4.092599 13.096316,-9.003718 18.825955,-13.914836c13.914836,-11.732117 28.648192,-25.646953 34.650671,-43.108708c3.274079,-9.822237 3.546919,-20.735834 -2.728399,-29.193872c-5.729638,-7.639518 -15.824716,-11.732117 -24.828433,-13.369156c-24.282753,-4.365439 -42.835869,9.549397 -56.750705,27.829673c-17.188915,21.008674 -29.193872,47.201307 -35.196351,73.66678c-3.274079,13.096316 -4.911119,26.192633 -7.093838,39.561789c-2.182719,13.369156 -3.546919,26.192633 3.546919,38.74327c-0.54568,-4.365439 -1.3642,-8.458038 -1.3642,-12.550637c0,-2.182719 0.81852,-4.365439 0.81852,-6.275318c0,-0.81852 -0.81852,-3.546919 -0.81852,-4.911119c0,-4.092599 0.81852,-7.093838 1.909879,-11.186437c0.54568,-4.092599 0,-8.185198 0.54568,-12.004957c0.54568,-4.365439 2.182719,-8.185198 4.092599,-12.004957c1.3642,-3.546919 1.909879,-6.820998 3.274079,-10.367917c1.3642,-3.274079 2.182719,-6.820998 3.546919,-10.367917c0.54568,-2.182719 2.728399,-4.911119 4.092599,-7.639518c-1.3642,4.092599 -4.092599,7.639518 -4.911119,11.186437c-1.3642,5.456799 -0.54568,11.186437 -0.81852,16.643236c-0.81852,5.729638 -2.728399,11.732117 -3.546919,18.007435c-0.81852,5.729638 -3.546919,11.186437 -4.365439,17.188915c-0.81852,5.456799 -2.728399,9.549397 -2.182719,14.733356c0,3.274079 0.54568,6.275318 0.81852,9.003718c0.54568,3.546919 2.728399,5.729638 4.911119,8.458038c7.639518,9.003718 18.007435,16.097556 29.739552,19.371635c8.185198,2.182719 15.279036,1.909879 22.918554,-2.182719c10.913597,-5.729638 20.190155,-14.733356 28.375352,-23.464234c7.639518,-8.458038 13.369156,-18.007435 20.190155,-27.011153c6.275318,-8.185198 13.914836,-15.824716 20.190155,-23.737074l24.282753,-31.376592l13.914836,-18.553115c1.63704,-3.001239 3.001239,-5.183959 1.3642,-9.003718zm-111.59153,4.911119c0.54568,-0.81852 0.54568,-1.3642 0.54568,-1.3642c6.820998,-14.460516 11.732117,-29.739552 21.008674,-43.654388l8.185198,-10.913597c1.909879,-2.182719 4.911119,-6.275318 8.185198,-7.093838c6.820998,-1.3642 8.458038,10.367917 8.185198,14.733356l-1.909879,9.549397c-0.54568,2.728399 0.54568,4.365439 0,6.820998c-0.81852,2.728399 -3.274079,4.092599 -4.365439,6.275318l-7.639518,9.822237c-10.367917,12.004957 -23.464234,22.372874 -37.65191,30.012392c1.909879,-4.638279 3.274079,-9.549397 5.456799,-14.187676z" class="st0"/>
    <path stroke="null" id="svg_68" d="m785.056062,252.750252l0,-0.54568c-1.3642,-6.275318 -4.911119,-7.093838 -9.549397,-5.456799c-8.458038,4.092599 -17.188915,13.096316 -25.101273,18.553115c-18.553115,11.732117 -36.83339,21.008674 -56.750705,31.103752c0,-0.54568 -0.54568,-1.3642 -0.81852,-2.728399c0.54568,2.182719 0,3.274079 -0.54568,3.546919c-4.365439,-19.371635 -9.003718,-38.74327 -12.550637,-58.387744c1.909879,8.458038 5.729638,22.918554 9.003718,35.196351c-4.092599,-18.825955 -9.003718,-42.290189 -8.458038,-42.290189c-0.81852,0.54568 -0.81852,1.3642 -0.81852,2.182719c-0.81852,-5.456799 -2.182719,-12.004957 -1.3642,-18.007435c0.54568,-6.820998 4.092599,-12.550637 6.275318,-18.825955c-0.54568,3.274079 -1.3642,7.093838 -1.3642,7.093838c2.728399,0.54568 4.365439,-16.097556 4.365439,-18.007435c-0.54568,-2.728399 -6.275318,-11.186437 -6.275318,-9.003718c-12.004957,-11.186437 -36.01487,13.369156 -39.561789,24.282753c-2.728399,7.093838 -2.728399,14.733356 -2.182719,22.372874c0.54568,7.639518 2.728399,14.460516 4.911119,21.554354c1.3642,5.456799 -0.54568,9.003718 0,14.733356c0.81852,9.003718 4.092599,18.007435 5.729638,26.465473c1.909879,6.820998 7.639518,20.190155 6.275318,26.465473c-0.81852,6.275318 -14.460516,11.732117 -20.190155,15.279036c-7.639518,4.911119 -15.279036,10.913597 -22.918554,16.643236c-13.369156,10.367917 -27.829673,23.464234 -33.286471,40.107469c-0.81852,2.182719 -4.092599,12.004957 -0.81852,13.914836c0.54568,0.54568 1.909879,-7.093838 2.182719,-8.185198c-5.729638,29.739552 23.464234,43.927228 50.748226,44.472908c31.103752,0.81852 52.658106,-17.188915 63.298863,-45.018588c4.365439,-12.004957 5.729638,-24.828433 5.456799,-37.37907c0,-8.458038 -0.81852,-16.643236 -2.182719,-24.828433c-0.81852,-7.093838 -1.909879,-6.820998 3.274079,-10.913597c3.546919,-2.728399 9.003718,-4.365439 12.550637,-6.275318c14.460516,-7.639518 27.556833,-16.643236 40.380309,-26.192633c9.822237,-6.002478 32.195111,-17.461755 30.285232,-31.922271zm-181.438551,154.154559c-11.732117,-3.546919 0,-22.100034 4.092599,-27.829673c6.820998,-9.003718 16.643236,-15.824716 25.646953,-22.100034l13.369156,-9.003718c1.3642,-0.81852 9.822237,-7.639518 7.093838,-6.820998l5.456799,-3.274079l-3.274079,2.728399c0.81852,-0.54568 2.182719,-0.81852 3.274079,-1.909879c0.54568,10.913597 0.54568,21.554354 -2.728399,32.467951c-0.54568,1.909879 -9.003718,19.917315 -12.550637,23.464234l2.182719,-1.909879c-4.092599,4.911119 -8.458038,9.003718 -13.914836,12.004957c0,-0.54568 4.092599,-3.274079 3.546919,-3.546919l-12.550637,4.911119c-6.275318,1.63704 -13.369156,3.001239 -19.644475,0.81852zm56.477865,13.096316c-11.732117,4.911119 -22.918554,7.093838 -35.196351,7.639518c22.100034,-1.3642 45.018588,-12.004957 58.114904,-30.558072c-4.911119,9.822237 -11.186437,17.461755 -22.918554,22.918554z" class="st0"/>
    <path stroke="null" id="svg_69" d="m690.380607,279.761405c1.3642,4.911119 2.182719,9.549397 2.728399,12.550637c-1.09136,-2.728399 -1.909879,-7.639518 -2.728399,-12.550637z" class="st0"/>
    <path stroke="null" id="svg_70" d="m698.292965,336.784949c0,0.81852 0,1.909879 0.54568,2.182719c0,-0.27284 -0.54568,-1.3642 -0.54568,-2.182719z" class="st0"/>
   </g>
   <g stroke="null" id="svg_71">
    <path stroke="null" id="svg_72" d="m71.579653,101.869772c1.3642,-2.455559 2.182719,-4.365439 3.546919,-6.275318c3.819759,-5.729638 7.639518,-10.913597 11.186437,-16.643236c4.092599,-6.548158 4.092599,-13.369156 -0.54568,-19.644475c-3.001239,-4.092599 -6.820998,-7.912358 -10.095077,-12.004957c-0.27284,-0.27284 -0.27284,-0.81852 -0.54568,-1.63704c0.81852,-0.27284 1.909879,-0.81852 2.455559,-0.54568c6.275318,2.728399 12.277797,5.729638 16.097556,11.459277c0.27284,0.54568 0.81852,1.09136 1.3642,1.3642c4.092599,2.182719 4.911119,6.002478 6.002478,9.822237c2.728399,12.004957 -0.27284,22.918554 -5.729638,33.832151c-2.728399,5.183959 -4.911119,10.367917 -6.548158,15.824716c-3.274079,9.549397 0.27284,18.280275 4.911119,26.465473c1.09136,1.909879 2.182719,3.819759 3.546919,5.729638c2.728399,4.365439 2.728399,9.003718 2.728399,13.914836c0,5.456799 -6.548158,12.823477 -12.550637,14.460516c-1.909879,0.54568 -3.819759,1.3642 -6.002478,1.63704c-1.909879,0.27284 -3.819759,0.54568 -5.729638,0c-7.639518,-2.455559 -15.006196,-6.548158 -19.098795,-13.369156c-4.365439,-7.366678 -8.730878,-15.279036 -7.912358,-24.282753c0.81852,-9.276558 2.182719,-18.280275 9.003718,-25.646953c3.819759,-3.819759 6.820998,-8.458038 10.367917,-12.550637c0.81852,-1.3642 1.63704,-3.546919 3.546919,-1.909879zm-5.456799,63.298863c-0.81852,-0.27284 -1.3642,-0.81852 -1.909879,-0.81852c-0.27284,0 -0.81852,0.81852 -0.81852,1.3642c0,0.27284 0.81852,1.09136 1.09136,0.81852c0.81852,0 1.09136,-0.81852 1.63704,-1.3642zm-2.455559,-5.456799c1.3642,1.63704 1.3642,1.63704 3.819759,0.54568c-1.63704,-0.27284 -2.455559,-0.27284 -3.819759,-0.54568z" class="st0"/>
    <path stroke="null" id="svg_73" d="m130.513077,175.536553c0,0.27284 -0.27284,0.54568 -0.27284,0.81852c-2.455559,12.550637 -11.186437,18.553115 -22.918554,20.462995c-8.730878,1.63704 -17.188915,0.81852 -25.374113,-2.728399c-0.81852,-0.27284 -1.63704,-0.81852 -2.455559,-1.3642c-1.909879,-1.63704 -1.63704,-3.819759 0.81852,-4.911119c2.455559,-1.09136 5.183959,-1.909879 7.639518,-2.728399c1.09136,-0.27284 2.182719,-0.81852 3.274079,-0.81852c14.733356,-2.182719 20.190155,-18.007435 16.916075,-28.375352c-2.182719,-6.820998 -4.638279,-13.641996 -7.366678,-20.190155c-4.365439,-11.459277 -2.455559,-22.372874 4.365439,-32.467951c3.546919,-5.456799 9.822237,-10.367917 15.824716,-13.914836c-0.54568,1.3642 -0.81852,2.455559 -1.3642,3.274079c-5.183959,10.640757 -6.275318,21.554354 -1.909879,32.467951c2.728399,6.820998 5.729638,13.096316 8.458038,19.917315c3.546919,7.912358 6.820998,15.824716 6.275318,24.828433c-0.27284,2.182719 0,4.365439 -1.909879,5.729638c-3.274079,0.27284 -3.274079,0.27284 -3.274079,2.728399c1.09136,-0.81852 2.182719,-1.63704 3.274079,-2.728399zm-4.911119,-0.27284c-0.27284,-0.27284 -0.54568,-0.54568 -0.54568,-0.81852c-0.54568,0.54568 -1.09136,0.81852 -1.63704,1.3642c0.27284,0.27284 0.27284,0.54568 0.54568,0.54568c0.27284,-0.27284 0.81852,-0.81852 1.63704,-1.09136zm-22.372874,-48.565507c0.27284,-0.27284 0.54568,-0.54568 0.81852,-0.81852c-0.54568,-0.54568 -1.09136,-0.81852 -1.63704,-1.3642c-0.27284,0.27284 -0.27284,0.27284 -0.54568,0.54568c0.54568,0.54568 1.09136,1.09136 1.3642,1.63704z" class="st0"/>
    <path stroke="null" id="svg_74" d="m16.193148,102.415452c3.001239,-0.54568 4.911119,1.3642 6.820998,3.001239c8.458038,7.093838 13.096316,16.370396 15.006196,27.011153c1.09136,6.820998 2.182719,13.641996 3.819759,20.190155c1.63704,7.366678 5.456799,13.914836 11.186437,19.098795c2.455559,2.455559 5.183959,4.365439 7.639518,6.820998c2.182719,2.455559 4.638279,4.911119 6.275318,7.912358c3.001239,5.183959 1.09136,9.276558 -4.092599,12.004957c-6.002478,3.001239 -11.186437,1.3642 -16.097556,-2.455559c-5.183959,-4.092599 -8.730878,-9.276558 -10.913597,-15.551876c-3.274079,-9.003718 -5.183959,-18.007435 -3.274079,-27.829673c1.3642,-6.820998 1.909879,-13.914836 2.728399,-21.008674c0.27284,-1.63704 0,-3.274079 -0.54568,-4.638279c-3.546919,-9.276558 -8.458038,-17.734595 -17.734595,-22.645714c-0.81852,-0.27284 -1.3642,-0.54568 -2.182719,-1.09136c0.54568,0.27284 0.81852,-0.27284 1.3642,-0.81852zm26.192633,70.665541c4.911119,1.63704 4.911119,1.63704 6.548158,-1.909879c-2.182719,0.54568 -4.092599,1.09136 -6.548158,1.909879z" class="st0"/>
   </g>
  </g>
 </g>
</svg>